<?xml version="1.0" standalone="no"?>
<!DOCTYPE svg PUBLIC "-//W3C//DTD SVG 20010904//EN"
 "http://www.w3.org/TR/2001/REC-SVG-20010904/DTD/svg10.dtd">
<svg version="1.0" xmlns="http://www.w3.org/2000/svg"
 width="24" height="24" viewBox="0 0 466.000000 536.000000"
 preserveAspectRatio="xMidYMid meet">

<g transform="translate(0.000000,536.000000) scale(0.100000,-0.100000)"
fill="#000000" stroke="none">
<path d="M2262 5120 c-18 -4 -126 -60 -240 -123 -1232 -688 -1798 -1008 -1823
-1031 -16 -16 -40 -47 -52 -70 l-22 -41 -3 -1139 c-3 -1274 -6 -1211 66 -1287
24 -25 132 -92 312 -192 151 -85 590 -331 975 -547 385 -216 723 -404 750
-416 56 -26 131 -31 186 -12 19 6 232 122 474 258 242 136 688 386 990 555
303 170 564 319 582 332 18 14 43 48 58 76 l25 51 0 1155 c0 1105 -1 1158 -19
1196 -10 22 -36 57 -57 77 -22 20 -186 119 -369 221 -181 101 -627 350 -990
552 -363 203 -676 374 -695 381 -39 15 -98 16 -148 4z m418 -833 c419 -99 749
-319 996 -663 35 -49 64 -93 64 -99 0 -10 -693 -410 -710 -410 -4 0 -28 27
-52 60 -105 142 -256 243 -446 298 -117 33 -304 30 -427 -7 -153 -46 -295
-138 -390 -253 -67 -81 -148 -240 -171 -338 -21 -86 -23 -266 -5 -350 65 -299
282 -532 573 -615 92 -27 261 -37 352 -21 100 18 225 66 305 119 84 55 189
157 233 225 17 26 36 46 42 43 45 -19 701 -386 704 -394 1 -5 -24 -49 -57 -98
-239 -358 -602 -604 -1028 -695 -153 -33 -438 -38 -602 -10 -367 62 -718 258
-959 533 -348 399 -483 927 -368 1438 126 555 538 1008 1086 1191 194 65 299
79 545 75 181 -3 225 -8 315 -29z"/>
</g>
</svg>
